<svg width="12" height="12" viewBox="0 0 12 12" fill="none" xmlns="http://www.w3.org/2000/svg">
<path d="M11 9.165C11 9.345 10.9599 9.53 10.8748 9.71C10.7897 9.89 10.6795 10.06 10.5343 10.22C10.2889 10.49 10.0185 10.685 9.71307 10.81C9.41262 10.935 9.08713 11 8.73661 11C8.22584 11 7.68002 10.88 7.10416 10.635C6.52829 10.39 5.95243 10.06 5.38157 9.645C4.80571 9.225 4.25989 8.76 3.73911 8.245C3.22333 7.725 2.75764 7.18 2.34201 6.61C1.9314 6.04 1.6009 5.47 1.36054 4.905C1.12018 4.335 1 3.79 1 3.27C1 2.93 1.06009 2.605 1.18027 2.305C1.30045 2 1.49074 1.72 1.75613 1.47C2.07661 1.155 2.42714 1 2.7977 1C2.93791 1 3.07812 1.03 3.20331 1.09C3.3335 1.15 3.44867 1.24 3.53881 1.37L4.70055 3.005C4.79069 3.13 4.85578 3.245 4.90085 3.355C4.94592 3.46 4.97096 3.565 4.97096 3.66C4.97096 3.78 4.9359 3.9 4.8658 4.015C4.8007 4.13 4.70556 4.25 4.58538 4.37L4.20481 4.765C4.14972 4.82 4.12469 4.885 4.12469 4.965C4.12469 5.005 4.12969 5.04 4.13971 5.08C4.15473 5.12 4.16975 5.15 4.17977 5.18C4.26991 5.345 4.42514 5.56 4.64547 5.82C4.87081 6.08 5.11117 6.345 5.37156 6.61C5.64196 6.875 5.90235 7.12 6.16775 7.345C6.42814 7.565 6.64347 7.715 6.81372 7.805C6.83876 7.815 6.8688 7.83 6.90386 7.845C6.94392 7.86 6.98398 7.865 7.02904 7.865C7.11417 7.865 7.17927 7.835 7.23435 7.78L7.61492 7.405C7.74011 7.28 7.86029 7.185 7.97546 7.125C8.09064 7.055 8.20581 7.02 8.331 7.02C8.42614 7.02 8.52629 7.04 8.63645 7.085C8.74662 7.13 8.86179 7.195 8.98698 7.28L10.6445 8.455C10.7747 8.545 10.8648 8.65 10.9199 8.775C10.97 8.9 11 9.025 11 9.165Z" stroke="#DFD390" stroke-miterlimit="10"/>
</svg>
