<svg width="12" height="12" viewBox="0 0 12 12" fill="none" xmlns="http://www.w3.org/2000/svg">
<path d="M6 11C8.76142 11 11 8.76142 11 6C11 3.23858 8.76142 1 6 1C3.23858 1 1 3.23858 1 6C1 8.76142 3.23858 11 6 11Z" stroke="#DFD390" stroke-linecap="round" stroke-linejoin="round"/>
<path d="M5.992 3.904C5.85333 3.904 5.736 3.856 5.64 3.76C5.544 3.664 5.496 3.54667 5.496 3.408C5.496 3.26933 5.544 3.152 5.64 3.056C5.736 2.96 5.85333 2.912 5.992 2.912C6.12533 2.912 6.23733 2.96 6.328 3.056C6.424 3.152 6.472 3.26933 6.472 3.408C6.472 3.54667 6.424 3.664 6.328 3.76C6.23733 3.856 6.12533 3.904 5.992 3.904ZM6.344 4.616V9H5.616V4.616H6.344Z" fill="#DFD390"/>
</svg>
