<svg width="12" height="12" viewBox="0 0 12 12" fill="none" xmlns="http://www.w3.org/2000/svg">
<path d="M4 1.4C4.6 1.15 5.3 1 6 1C8.75 1 11 3.25 11 6C11 8.75 8.75 11 6 11C3.25 11 1 8.75 1 6C1 5.3 1.15 4.6 1.4 4" stroke="#DFD390" stroke-miterlimit="10" stroke-linecap="round" stroke-linejoin="round"/>
<path d="M2.66688 3.22281C2.97371 3.22281 3.22244 2.97399 3.22244 2.66707C3.22244 2.36014 2.97371 2.11133 2.66688 2.11133C2.36006 2.11133 2.11133 2.36014 2.11133 2.66707C2.11133 2.97399 2.36006 3.22281 2.66688 3.22281Z" stroke="#DFD390" stroke-miterlimit="10" stroke-linecap="round" stroke-linejoin="round"/>
</svg>
