<svg width="12" height="13" viewBox="0 0 12 13" fill="none" xmlns="http://www.w3.org/2000/svg">
<path d="M2.5 5.08683H3.5C4.5 5.08683 5 4.57821 5 3.56095V2.5437C5 1.52645 4.5 1.01782 3.5 1.01782H2.5C1.5 1.01782 1 1.52645 1 2.5437V3.56095C1 4.57821 1.5 5.08683 2.5 5.08683Z" stroke="#DFD390" stroke-miterlimit="10" stroke-linecap="round" stroke-linejoin="round"/>
<path d="M8.5 5.08683H9.5C10.5 5.08683 11 4.57821 11 3.56095V2.5437C11 1.52645 10.5 1.01782 9.5 1.01782H8.5C7.5 1.01782 7 1.52645 7 2.5437V3.56095C7 4.57821 7.5 5.08683 8.5 5.08683Z" stroke="#DFD390" stroke-miterlimit="10" stroke-linecap="round" stroke-linejoin="round"/>
<path d="M8.5 11.1901H9.5C10.5 11.1901 11 10.6815 11 9.66423V8.64697C11 7.62972 10.5 7.12109 9.5 7.12109H8.5C7.5 7.12109 7 7.62972 7 8.64697V9.66423C7 10.6815 7.5 11.1901 8.5 11.1901Z" stroke="#DFD390" stroke-miterlimit="10" stroke-linecap="round" stroke-linejoin="round"/>
<path d="M2.5 11.1901H3.5C4.5 11.1901 5 10.6815 5 9.66423V8.64697C5 7.62972 4.5 7.12109 3.5 7.12109H2.5C1.5 7.12109 1 7.62972 1 8.64697V9.66423C1 10.6815 1.5 11.1901 2.5 11.1901Z" stroke="#DFD390" stroke-miterlimit="10" stroke-linecap="round" stroke-linejoin="round"/>
</svg>
